<svg width="32" height="32" viewBox="0 0 32 32" fill="none" xmlns="http://www.w3.org/2000/svg">
<path d="M0 2.78261H1.3913V4.17391H0V2.78261Z" fill="#975A16"/>
<path d="M6.6087 2.43478H8.69565V4.52174H6.6087V2.43478Z" fill="#975A16"/>
<path d="M12.8696 1.73913H16.3478V5.21739H12.8696V1.73913Z" fill="#975A16"/>
<path d="M18.9565 0.869565H24.1739V6.08696H18.9565V0.869565Z" fill="#975A16"/>
<path d="M26.4348 0H32V5.56522H26.4348V0Z" fill="#975A16"/>
<path d="M0 9.73913H1.3913V11.1304H0V9.73913Z" fill="#975A16"/>
<path d="M6.6087 9.3913H8.69565V11.4783H6.6087V9.3913Z" fill="#975A16"/>
<path d="M12.8696 8.69565H16.3478V12.1739H12.8696V8.69565Z" fill="#975A16"/>
<path d="M18.9565 7.82609H24.1739V13.0435H18.9565V7.82609Z" fill="#975A16"/>
<path d="M25.913 7.82609H31.1304V13.0435H25.913V7.82609Z" fill="#975A16"/>
<path d="M0 16.6957H1.3913V18.087H0V16.6957Z" fill="#975A16"/>
<path d="M6.6087 16.3478H8.69565V18.4348H6.6087V16.3478Z" fill="#975A16"/>
<path d="M12.8696 15.6522H16.3478V19.1304H12.8696V15.6522Z" fill="#975A16"/>
<path d="M19.8261 15.6522H23.3043V19.1304H19.8261V15.6522Z" fill="#975A16"/>
<path d="M26.7826 15.6522H30.2609V19.1304H26.7826V15.6522Z" fill="#975A16"/>
<path d="M0 23.6522H1.3913V25.0435H0V23.6522Z" fill="#975A16"/>
<path d="M6.6087 23.3043H8.69565V25.3913H6.6087V23.3043Z" fill="#975A16"/>
<path d="M13.5652 23.3043H15.6522V25.3913H13.5652V23.3043Z" fill="#975A16"/>
<path d="M20.5217 23.3043H22.6087V25.3913H20.5217V23.3043Z" fill="#975A16"/>
<path d="M27.4783 23.3043H29.5652V25.3913H27.4783V23.3043Z" fill="#975A16"/>
<path d="M0 30.6087H1.3913V32H0V30.6087Z" fill="#975A16"/>
<path d="M6.95652 30.6087H8.34783V32H6.95652V30.6087Z" fill="#975A16"/>
<path d="M13.8783 30.6087H15.3391V32H13.8783V30.6087Z" fill="#975A16"/>
<path d="M20.8348 30.6087H22.2957V32H20.8348V30.6087Z" fill="#975A16"/>
<path d="M27.8261 30.6087H29.2174V32H27.8261V30.6087Z" fill="#975A16"/>
</svg>
